<svg id="Layer_2" data-name="Layer 2" xmlns="http://www.w3.org/2000/svg" xmlns:xlink="http://www.w3.org/1999/xlink" viewBox="0 0 300 200">
  <defs>
    <linearGradient id="Primary_Complementary_1" data-name="Primary Complementary 1" x1="-13.229" y1="209.962" x2="294.031" y2="2.971" gradientUnits="userSpaceOnUse">
      <stop offset="0" stop-color="#f37121"/>
      <stop offset="1" stop-color="#0080c8"/>
    </linearGradient>
  </defs>
  <title>dice</title>
  <rect width="300" height="200" fill="url(#Primary_Complementary_1)"/>
  <g opacity="0.7">
    <path d="M144.216,106.39l28.815,9.869L198.26,91.032l-29.014-9.671Zm12.975-1.541c-1.526,1.526-4.013,2.187-5.557,1.475s-1.556-2.525-.029-4.052,4.013-2.187,5.557-1.475S158.718,103.323,157.192,104.849Zm9.305,3.259c-1.526,1.526-4.013,2.187-5.557,1.475s-1.556-2.525-.029-4.052,4.013-2.187,5.557-1.475S168.023,106.583,166.5,108.109Zm18.761-14.595c1.526-1.526,4.013-2.187,5.557-1.475s1.556,2.525.03,4.052-4.013,2.187-5.557,1.475S183.732,95.04,185.258,93.514Zm-9.278-3.05c1.526-1.526,4.013-2.187,5.557-1.475s1.556,2.525.029,4.052-4.013,2.187-5.557,1.475S174.454,91.991,175.98,90.465Zm-0.235,16.642c1.542,0.712,1.556,2.525.029,4.052s-4.013,2.187-5.557,1.475-1.556-2.525-.03-4.052S174.2,106.4,175.746,107.107Zm-3.514-21.378c1.542,0.712,1.556,2.525.029,4.052s-4.013,2.187-5.557,1.475-1.556-2.525-.029-4.052S170.689,85.018,172.232,85.729Z"/>
    <path d="M198.728,87.546L189.2,58.964l-28.582-9.528,9.527,28.581ZM177.5,65.134c1.067-1.067,3.212-.654,4.791.924s1.993,3.724.924,4.791-3.212.654-4.791-.924S176.436,66.2,177.5,65.134Z"/>
    <path d="M130.356,7.741L103.408,21.214l26.948,13.473L157.3,21.214Zm0,16.207c-2.232,0-4.042-1.225-4.042-2.734s1.81-2.734,4.042-2.734,4.042,1.225,4.042,2.734S132.588,23.948,130.356,23.948Z"/>
    <path d="M137.283,59.4c1.288-.474,2.364.277,2.736,1.716l16.139-16.139,3.279,1.094V24.01L132.083,37.688V69.053l2.765-2.765a3.882,3.882,0,0,1-.451-1.914C134.4,62.214,135.69,59.988,137.283,59.4Zm17.6-29.414c1.594-.587,2.886.686,2.886,2.844s-1.291,4.384-2.886,4.972S152,37.116,152,34.958,153.291,30.574,154.885,29.986Zm-8.224,14.12c1.594-.587,2.886.686,2.886,2.844s-1.291,4.384-2.886,4.972-2.886-.686-2.886-2.844S145.069,44.693,146.662,44.106ZM134.4,43.638c0-2.158,1.291-4.384,2.886-4.972s2.886,0.686,2.886,2.844-1.291,4.384-2.886,4.972S134.4,45.8,134.4,43.638Z"/>
    <path d="M101.272,59.685l26.969,13.209,0.387-.387V37.688L101.272,24.01V59.685Zm22.089-.285c1.594,0.587,2.886,2.814,2.886,4.972s-1.291,3.431-2.886,2.844-2.886-2.814-2.886-4.972S121.768,58.813,123.361,59.4ZM114.95,43.669c1.594,0.587,2.886,2.814,2.886,4.972s-1.291,3.431-2.886,2.844-2.886-2.814-2.886-4.972S113.357,43.082,114.95,43.669Zm-8.656-13.683c1.594,0.587,2.886,2.814,2.886,4.972s-1.291,3.431-2.886,2.844-2.886-2.814-2.886-4.972S104.7,29.4,106.294,29.986Z"/>
    <path d="M157.131,49.9L131.9,75.128l9.87,28.818L166.8,78.915Zm-10.774,44.54c-1.526,1.526-3.341,1.513-4.052-.03s-0.051-4.031,1.475-5.557,3.341-1.513,4.052.029S147.884,92.916,146.358,94.443Zm8.418-29.909c-1.526,1.526-3.341,1.513-4.052-.029s-0.051-4.031,1.475-5.557,3.341-1.513,4.052.029S156.3,63.008,154.775,64.534Z"/>
  </g>
</svg>
