<svg id="Layer_3" data-name="Layer 3" xmlns="http://www.w3.org/2000/svg" xmlns:xlink="http://www.w3.org/1999/xlink" viewBox="0 0 300 200">
  <defs>
    <linearGradient id="Green_Yellow" data-name="Green, Yellow" x1="-13.229" y1="209.962" x2="294.031" y2="2.971" gradientUnits="userSpaceOnUse">
      <stop offset="0" stop-color="#fff166"/>
      <stop offset="0.078" stop-color="#f0e660"/>
      <stop offset="0.176" stop-color="#e5dd5b"/>
      <stop offset="0.28" stop-color="#e1da59"/>
      <stop offset="0.67" stop-color="#24b34b"/>
      <stop offset="0.89" stop-color="#21777e"/>
      <stop offset="1" stop-color="#2e3192"/>
    </linearGradient>
  </defs>
  <title>human</title>
  <rect width="300" height="200" fill="url(#Green_Yellow)"/>
  <g opacity="0.7">
    <path d="M176.034,11.771a4.6,4.6,0,0,0-9.2.335V29.7l-2.24,3.4-4.919,7.465h-18.36l-7.7-8.128,1.527-6.361,0.6-2.495c0-.009,0-0.018.005-0.026,0.028-.121.05-0.243,0.068-0.363,0.006-.06.016-0.119,0.023-0.179a4.553,4.553,0,0,0-.092-1.548,4.6,4.6,0,0,0-3.409-3.439c-0.03-.007-0.058-0.009-0.088-0.016a4.606,4.606,0,0,0-.994-0.114c-0.018,0-.035,0-0.052,0a4.6,4.6,0,0,0-4.42,3.528l-0.194.81-0.3,1.252-2.214,9.224a4.609,4.609,0,0,0,1.135,4.244l6.379,6.735L133.78,46l6.514,6.877V68.6l-0.6.735-5.055,6.178L124.991,87.3a4.609,4.609,0,0,0,.441,6.3l11.737,10.835a4.607,4.607,0,0,0,6.249-6.771l-8.548-7.891,7.766-9.489h11.11v31.6a4.607,4.607,0,0,0,9.213,0V73.519a4.621,4.621,0,0,0-.093-0.914V52.47l1.673-2.539L175.29,33.617a4.6,4.6,0,0,0,.76-2.534V12.106C176.05,11.993,176.042,11.882,176.034,11.771Z"/>
    <path d="M140.285,27.137a10.61,10.61,0,0,0,19.835,2.239,10.514,10.514,0,0,0,.9-2.608,10.6,10.6,0,0,0-9.876-12.7c-0.179-.009-0.356-0.027-0.538-0.027a10.653,10.653,0,0,0-10.56,9.47c-0.007.06-.007,0.12-0.016,0.18q-0.04.429-.044,0.867c0,0.035-.005.07-0.005,0.107,0,0.343.02,0.682,0.052,1.017A10.491,10.491,0,0,0,140.285,27.137Z"/>
  </g>
</svg>
