<svg id="Layer_1" data-name="Layer 1" xmlns="http://www.w3.org/2000/svg" xmlns:xlink="http://www.w3.org/1999/xlink" viewBox="0 0 300 200">
  <defs>
    <linearGradient id="Analogous_3" data-name="Analogous 3" x1="-13.229" y1="209.962" x2="294.031" y2="2.971" gradientUnits="userSpaceOnUse">
      <stop offset="0" stop-color="#00a995"/>
      <stop offset="0" stop-color="#3c3795"/>
      <stop offset="0.506" stop-color="#a53594"/>
      <stop offset="1" stop-color="#da2128"/>
    </linearGradient>
  </defs>
  <title>robot</title>
  <rect width="300" height="200" fill="url(#Analogous_3)"/>
  <g opacity="0.7">
    <circle cx="150.16" cy="34.186" r="3.285"/>
    <rect x="145.252" y="102.913" width="7.508" height="2.886"/>
    <path d="M152.763,109.561v-2.255h-7.508v2.255a7.961,7.961,0,0,0-4.2,7.017h15.913A7.983,7.983,0,0,0,152.763,109.561Z"/>
    <rect x="162.474" y="102.913" width="7.508" height="2.886"/>
    <path d="M169.982,109.561v-2.255h-7.508v2.255a7.964,7.964,0,0,0-4.2,7.017h15.909A7.937,7.937,0,0,0,169.982,109.561Z"/>
    <circle cx="164.849" cy="34.186" r="3.285"/>
    <path d="M190.831,82.34l0.014,0L176.76,54.479l-0.007,0v0H165.807V47.551h7.624V25.126h-9.237V20.507h-6.113v-9.67h1.252V7.422h-3.66v3.414h1.252v9.67h-6.109v4.619h-9.237V47.547h7.627v6.928H138.16l-8.4,10.349L114.872,51.337V45.862h-3V53.54h-7.678v3h6.113L130.523,74.86l7.641-9.367V88.064h6.928v13.192h7.5V88.064h9.725v13.192h7.5V88.064h6.928V69.811l7.433,14.7-2.371,5.621,2.77,1.167,2.985-7.075,7.075,2.985,1.167-2.77ZM164.845,28.6a5.584,5.584,0,1,1-5.584,5.584A5.585,5.585,0,0,1,164.845,28.6Zm-20.269,5.584a5.584,5.584,0,1,1,5.584,5.584A5.584,5.584,0,0,1,144.576,34.186ZM160.7,80.505h-16.7V76.067h16.7v4.438Zm0-7.023h-16.7V69.04h16.7v4.441Zm0-7.156h-16.7V61.887h16.7v4.438Zm-3.2-22.1h-6.256V42.014h12.508v2.214H157.5Zm13.74,36.277h-8.037V76.067h8.037v4.438Zm0-7.023h-8.037V69.04h8.037v4.441Zm0-7.156h-8.037V61.887h8.037v4.438Z"/>
  </g>
</svg>
